<svg width="893" height="893" viewBox="0 0 893 893" fill="none" xmlns="http://www.w3.org/2000/svg">
<g filter="url(#filter0_d_223_341)">
<path d="M2.77051 69.26C2.77051 31.0087 33.7793 0 72.0306 0H820.039C858.29 0 889.299 31.0088 889.299 69.2601V817.269C889.299 855.52 858.29 886.529 820.039 886.529H72.0305C33.7792 886.529 2.77051 855.52 2.77051 817.269V69.26Z" fill="#F3F4F6"/>
</g>
<g clip-path="url(#clip0_223_341)">
<path d="M271.83 265.111H534.788C654.314 265.111 654.314 440.678 534.788 440.678H391.356" stroke="#4F46E5" stroke-width="100.324" stroke-linecap="round" stroke-linejoin="round"/>
<path d="M390.116 441.06H533.548C653.074 441.06 653.074 616.627 533.548 616.627H270.59" stroke="#4F46E5" stroke-width="100.324" stroke-linecap="round" stroke-linejoin="round"/>
<path d="M367.45 691.488V189.869" stroke="#4F46E5" stroke-width="100.324" stroke-linecap="round" stroke-linejoin="round"/>
<path d="M510.88 265.112V189.869" stroke="#4F46E5" stroke-width="100.324" stroke-linecap="round" stroke-linejoin="round"/>
<path d="M510.237 692.12V617.943" stroke="#4F46E5" stroke-width="99.6104" stroke-linecap="round" stroke-linejoin="round"/>
</g>
<defs>
<filter id="filter0_d_223_341" x="0.000105381" y="0" width="892.069" height="892.069" filterUnits="userSpaceOnUse" color-interpolation-filters="sRGB">
<feFlood flood-opacity="0" result="BackgroundImageFix"/>
<feColorMatrix in="SourceAlpha" type="matrix" values="0 0 0 0 0 0 0 0 0 0 0 0 0 0 0 0 0 0 127 0" result="hardAlpha"/>
<feOffset dy="2.7704"/>
<feGaussianBlur stdDeviation="1.3852"/>
<feComposite in2="hardAlpha" operator="out"/>
<feColorMatrix type="matrix" values="0 0 0 0 0 0 0 0 0 0 0 0 0 0 0 0 0 0 0.25 0"/>
<feBlend mode="normal" in2="BackgroundImageFix" result="effect1_dropShadow_223_341"/>
<feBlend mode="normal" in="SourceGraphic" in2="effect1_dropShadow_223_341" result="shape"/>
</filter>
<clipPath id="clip0_223_341">
<rect width="454.2" height="627.023" fill="white" transform="translate(219.236 129.676)"/>
</clipPath>
</defs>
</svg>
